<svg data-v-423bf9ae="" xmlns="http://www.w3.org/2000/svg" viewBox="0 0 574 90" class="iconLeft"><!----><!----><!----><g data-v-423bf9ae="" id="6193359d-0b96-4703-bb0c-5400c5fea890" fill="black" transform="matrix(5.6550421714782715,0,0,5.6550421714782715,104.45807647705078,-7.111214637756348)"><path d="M6.72 14.35L7.21 14.35L7.21 9.84L4.33 9.84L4.33 10.28L6.72 10.28L6.72 11.58C6.72 13.03 5.82 14.07 4.34 14.07C2.48 14.07 1.54 12.63 1.54 9.98L1.54 8.93C1.54 6.27 2.51 4.87 4.37 4.87C5.53 4.87 6.30 5.56 6.66 6.61L7.11 6.43C6.69 5.25 5.77 4.41 4.35 4.41C2.17 4.41 0.98 5.95 0.98 9.48C0.98 12.98 2.16 14.52 4.27 14.52C5.71 14.52 6.30 13.82 6.66 12.94L6.72 12.94ZM12.70 14.52C14.10 14.52 15.06 13.79 15.48 12.67L15.09 12.46C14.67 13.54 13.85 14.08 12.70 14.08C11.06 14.08 10.14 12.94 10.14 11.14L10.14 10.78L15.62 10.78L15.62 10.58C15.62 8.40 14.56 6.96 12.63 6.96C10.77 6.96 9.60 8.29 9.60 10.74C9.60 13.19 10.77 14.52 12.70 14.52ZM12.63 7.38C14.20 7.38 15.11 8.51 15.11 10.32L15.11 10.39L10.14 10.39L10.14 10.33C10.14 8.53 11.06 7.38 12.63 7.38ZM18.97 14.35L18.97 9.18C18.97 7.98 19.99 7.39 21.08 7.39C22.41 7.39 23.16 8.12 23.16 9.74L23.16 14.35L23.65 14.35L23.65 9.66C23.65 7.91 22.76 6.96 21.20 6.96C19.94 6.96 19.28 7.56 19.01 8.19L18.97 8.19L18.97 7.13L18.48 7.13L18.48 14.35ZM29.50 14.52C30.90 14.52 31.86 13.79 32.28 12.67L31.89 12.46C31.47 13.54 30.65 14.08 29.50 14.08C27.86 14.08 26.94 12.94 26.94 11.14L26.94 10.78L32.42 10.78L32.42 10.58C32.42 8.40 31.36 6.96 29.43 6.96C27.57 6.96 26.40 8.29 26.40 10.74C26.40 13.19 27.57 14.52 29.50 14.52ZM29.43 7.38C31.00 7.38 31.91 8.51 31.91 10.32L31.91 10.39L26.94 10.39L26.94 10.33C26.94 8.53 27.86 7.38 29.43 7.38ZM40.92 14.35L40.92 13.92L37.32 13.92L37.32 7.56L40.92 7.56L40.92 7.13L37.32 7.13L37.32 4.58L36.85 4.58L36.85 6.66C36.85 6.99 36.71 7.13 36.37 7.13L34.12 7.13L34.12 7.56L36.83 7.56L36.83 13.65C36.83 14.10 37.04 14.35 37.52 14.35ZM46.65 4.87C47.03 4.87 47.17 4.69 47.17 4.45L47.17 4.33C47.17 4.09 47.03 3.91 46.65 3.91C46.27 3.91 46.13 4.09 46.13 4.33L46.13 4.45C46.13 4.69 46.27 4.87 46.65 4.87ZM43.60 14.35L49.53 14.35L49.53 13.92L46.90 13.92L46.90 7.13L43.60 7.13L43.60 7.56L46.41 7.56L46.41 13.92L43.60 13.92ZM54.89 14.52C56.22 14.52 57.11 13.79 57.48 12.91L57.11 12.68C56.71 13.54 55.99 14.08 54.89 14.08C53.28 14.08 52.39 12.94 52.39 11.14L52.39 10.33C52.39 8.54 53.28 7.39 54.89 7.39C55.92 7.39 56.64 7.87 56.97 8.72L57.39 8.55C57.04 7.62 56.18 6.96 54.89 6.96C52.99 6.96 51.86 8.29 51.86 10.74C51.86 13.19 52.98 14.52 54.89 14.52ZM69.36 4.58L69.36 5.04L73.22 5.04L73.22 11.66C73.22 13.22 72.42 14.06 71.08 14.06C69.86 14.06 69.19 13.43 68.96 12.49L68.47 12.60C68.73 13.80 69.69 14.52 71.06 14.52C72.66 14.52 73.72 13.50 73.72 11.73L73.72 4.58ZM79.84 14.52C81.80 14.52 83.03 13.58 83.03 11.82C83.03 10.64 82.50 9.53 80.49 9.20L79.38 9.02C78.12 8.82 77.22 8.29 77.22 6.92C77.22 5.54 78.18 4.86 79.77 4.86C81.13 4.86 81.94 5.31 82.52 6.12L82.89 5.80C82.32 4.97 81.38 4.41 79.80 4.41C77.92 4.41 76.71 5.24 76.71 6.93C76.71 8.09 77.25 9.17 79.21 9.49L80.33 9.67C81.56 9.87 82.52 10.36 82.52 11.83C82.52 13.29 81.54 14.07 79.84 14.07C78.34 14.07 77.55 13.50 76.85 12.59L76.45 12.89C77.15 13.83 78.11 14.52 79.84 14.52Z"></path></g><!----><g data-v-423bf9ae="" id="050a175f-c077-4480-95d5-40ec5afb7204" transform="matrix(2.8125,0,0,2.8125,0,0)" stroke="none" fill="black"><path d="M9.571 20.464l8.064 4.47 8.065-4.47v-8.939l-8.065-4.469-8.064 4.469z"></path><path d="M32 0H0v32h32l-5.054-5.172H5.054V5.172h21.892z"></path></g><!----></svg>